<?xml version="1.0" encoding="UTF-8"?>
<svg id="a" data-name="Guides" xmlns="http://www.w3.org/2000/svg" xmlns:xlink="http://www.w3.org/1999/xlink" viewBox="0 0 160 50">
  <defs>
    <style>
      .d {
        fill: url(#b);
      }

      .e, .f, .g {
        fill: #fff;
      }

      .h {
        fill: #131b2d;
      }

      .i {
        fill: #221f20;
      }

      .i, .f {
        font-family: Quantify, Quantify;
      }

      .i, .f, .g {
        font-size: 26.25px;
      }

      .g {
        font-family: cream-DEMO, cream;
      }
    </style>
    <linearGradient id="b" x1="97.08" y1="22.58" x2="143.68" y2="22.58" gradientUnits="userSpaceOnUse">
      <stop offset="0" stop-color="#60b369"/>
      <stop offset="1" stop-color="#43956c"/>
    </linearGradient>
  </defs>
  <g>
    <text class="g" transform="translate(95.24 32.43)"><tspan x="0" y="0">labs</tspan></text>
    <g>
      <path class="d" d="m99.6,13.17l.08,4.2v10.39l-.08,4.23c0,.24-.21.45-.45.45h-1.55c-.24,0-.45-.21-.45-.45l-.08-4.23v-10.39l.08-4.2c0-.26.21-.45.45-.45h1.55c.24,0,.45.18.45.45Z"/>
      <path class="d" d="m115.71,31.9c0,.29-.24.52-.55.52h-1.39c-.26,0-.5-.24-.52-.52l-.03-1.15c0-.08-.08-.1-.13-.05-.71.97-2.39,1.73-3.75,1.73-3.6,0-6.48-2.89-6.48-6.48s2.89-6.48,6.48-6.48,6.27,2.73,6.43,6.17c.18,3.44-.05,6.27-.05,6.27Zm-2.57-5.46c.34-2.52-1.78-4.65-4.33-4.33-1.71.24-3.1,1.6-3.31,3.33-.31,2.52,1.81,4.65,4.33,4.33,1.71-.21,3.1-1.6,3.31-3.33Z"/>
      <path class="d" d="m118.58,13.98c0-.29.26-.52.55-.52h1.39c.29,0,.52.24.52.52l.03,7.14c0,.08.11.1.16.05.73-.97,2.39-1.71,3.75-1.71,3.57,0,6.46,2.91,6.46,6.48s-2.89,6.48-6.46,6.48-6.3-2.73-6.46-6.17c-.18-3.41.05-12.28.05-12.28Zm2.57,11.47c-.31,2.52,1.78,4.65,4.33,4.33,1.71-.21,3.1-1.6,3.31-3.33.31-2.52-1.78-4.65-4.33-4.33-1.71.24-3.1,1.6-3.31,3.33Z"/>
      <path class="d" d="m143.28,27.68c1.5,4.72-6.46,6.67-9.16,2.41-.13-.26-.05-.58.18-.71l1.31-.71c.18-.1.45-.05.6.13.58.66,1.63,1.13,2.55,1.13s2.18-.47,2.05-1.47c-.18-1.23-2.18-1.02-4.02-1.76-3.88-1.58-3.07-6.43,1.31-7.14,2.34-.34,4.23.39,5.49,2.36.16.24.08.55-.18.71l-1.16.68c-.21.1-.5.05-.66-.13-.79-.97-1.81-1.42-3.12-1.23-.87.13-1.52.68-1.55,1.15-.26,2.89,5.28,1.13,6.35,4.57Z"/>
    </g>
  </g>
  <g>
    <text class="i" transform="translate(15.41 32.85)"><tspan x="0" y="0">Farm</tspan></text>
    <text class="f" transform="translate(15.41 32.85)"><tspan x="0" y="0">Farm</tspan></text>
  </g>
  <g>
    <g>
      <polygon class="e" points="68.57 12.99 78.82 12.99 85.56 19.72 80.47 24.81 68.57 12.99"/>
      <path class="h" d="m78.38,14.07l5.65,5.65-3.56,3.56-9.28-9.22h7.18m.89-2.16h-13.32l3.72,3.69,9.28,9.22,1.53,1.52,1.52-1.52,3.56-3.56,1.53-1.53-1.53-1.53-5.65-5.65-.63-.63h0Z"/>
    </g>
    <g>
      <polygon class="e" points="61.18 43.89 80.55 24.88 85.56 29.89 71.56 43.89 61.18 43.89"/>
      <path class="h" d="m80.54,26.4l3.49,3.49-12.92,12.92h-7.29l16.72-16.41m.01-3.04l-1.53,1.5-16.72,16.41-3.77,3.7h13.47l.63-.63,12.92-12.92,1.53-1.53-1.53-1.53-3.49-3.49-1.51-1.51h0Z"/>
    </g>
    <g>
      <polygon class="e" points="92.26 36.56 80.59 24.89 99.44 6.05 109.8 6.05 90.85 25 102.42 36.56 92.26 36.56"/>
      <path class="h" d="m107.19,7.13l-17.87,17.87,10.48,10.48h-7.1l-10.59-10.59,17.76-17.76h7.31m5.21-2.16h-13.42l-.63.63-17.76,17.76-1.53,1.53,1.53,1.53,10.59,10.59.63.63h13.21l-3.69-3.69-8.96-8.96,16.34-16.34,3.69-3.69h0Z"/>
    </g>
  </g>
</svg>